<svg width="160" height="50" viewBox="0 0 160 50" fill="none" xmlns="http://www.w3.org/2000/svg">
<path d="M83.2441 41.42C83.2441 41.5933 82.8374 41.7333 82.0241 41.84C81.2241 41.9467 80.4107 42 79.5841 42C78.7707 42 78.2441 41.9533 78.0041 41.86C77.7774 41.7667 77.6641 41.62 77.6641 41.42V29.12C77.6641 28.7867 78.0507 28.4867 78.8241 28.22C79.5974 27.94 80.4374 27.8 81.3441 27.8C82.6107 27.8 83.2441 28.1 83.2441 28.7V33.1H85.0241V29.12C85.0241 28.7867 85.4107 28.4867 86.1841 28.22C86.9707 27.94 87.8174 27.8 88.7241 27.8C89.9774 27.8 90.6041 28.1 90.6041 28.7V41.42C90.6041 41.5933 90.1974 41.7333 89.3841 41.84C88.5707 41.9467 87.7574 42 86.9441 42C86.1307 42 85.6041 41.9533 85.3641 41.86C85.1374 41.7667 85.0241 41.62 85.0241 41.42V36.84H83.2441V41.42ZM102.735 42H94.2553C93.602 42 93.162 41.9533 92.9353 41.86C92.7086 41.7667 92.5953 41.62 92.5953 41.42V28.76C92.5953 28.4133 92.7486 28.1667 93.0553 28.02C93.3753 27.8733 93.942 27.8 94.7553 27.8H102.795C103.075 27.8 103.215 28.2667 103.215 29.2C103.215 30.12 103.155 30.8267 103.035 31.32C102.915 31.8 102.755 32.04 102.555 32.04C101.689 32.04 100.229 31.9533 98.1753 31.78V33.12C100.149 33.04 101.435 33 102.035 33C102.395 33 102.575 33.42 102.575 34.26C102.575 35.1 102.502 35.74 102.355 36.18C102.222 36.6067 102.035 36.82 101.795 36.82L98.1753 36.74V38.02C100.495 37.8467 102.095 37.76 102.975 37.76C103.255 37.76 103.395 38.2267 103.395 39.16C103.395 40.0933 103.335 40.8 103.215 41.28C103.095 41.76 102.935 42 102.735 42ZM108.282 42C107.949 42 107.462 42 106.822 42C106.196 42 105.769 41.9533 105.542 41.86C105.316 41.7667 105.202 41.62 105.202 41.42V28.8C105.202 28.4933 105.609 28.2533 106.422 28.08C107.249 27.8933 108.129 27.8 109.062 27.8C109.996 27.8 110.662 27.92 111.062 28.16C111.462 28.4 111.696 28.6533 111.762 28.92L113.122 34.2H113.302L114.582 29.16C114.676 28.8 115.109 28.4867 115.882 28.22C116.669 27.94 117.529 27.8 118.462 27.8C119.396 27.8 120.082 27.8733 120.522 28.02C120.976 28.1667 121.202 28.3533 121.202 28.58V41.42C121.202 41.5933 120.822 41.7333 120.062 41.84C119.302 41.9467 118.376 42 117.282 42C116.189 42 115.642 41.8067 115.642 41.42C115.642 40.3667 115.756 38.4933 115.982 35.8H115.802L114.762 41.02C114.722 41.22 114.556 41.3667 114.262 41.46C113.982 41.5533 113.556 41.6 112.982 41.6C112.409 41.6 112.056 41.56 111.922 41.48C111.802 41.4 111.722 41.2467 111.682 41.02L110.602 35.8H110.422C110.662 38.5467 110.782 40.42 110.782 41.42C110.782 41.7667 109.949 41.96 108.282 42Z" fill="#F59039"/>
<path d="M83.743 22.52C83.743 22.6667 83.3296 22.7867 82.503 22.88C81.6896 22.96 80.8696 23 80.043 23C79.2296 23 78.7096 22.9667 78.483 22.9C78.2696 22.82 78.163 22.6933 78.163 22.52V13.92H75.383C75.2363 13.92 75.1096 13.7333 75.003 13.36C74.8963 12.9867 74.843 12.4333 74.843 11.7C74.843 10.9533 74.923 10.2867 75.083 9.7C75.243 9.1 75.4563 8.8 75.723 8.8H86.543C86.743 8.8 86.8763 8.98667 86.943 9.36C87.023 9.73333 87.063 10.2733 87.063 10.98C87.063 11.6867 86.9896 12.3533 86.843 12.98C86.6963 13.6067 86.4963 13.92 86.243 13.92H83.743V22.52ZM92.1981 21.98C92.1715 22.3667 91.9648 22.6333 91.5781 22.78C91.2048 22.9267 90.5248 23 89.5381 23C88.5515 23 87.7248 22.9133 87.0581 22.74C86.4048 22.5533 86.0781 22.32 86.0781 22.04C86.0781 21.72 86.6715 19.68 87.8581 15.92C89.0448 12.1467 89.7248 9.97333 89.8981 9.4C89.9648 9.22667 90.4981 9.08667 91.4981 8.98C92.5115 8.86 93.5915 8.8 94.7381 8.8C95.8981 8.8 96.5381 9 96.6581 9.4C99.1781 17.7733 100.438 22.0267 100.438 22.16C100.438 22.2933 100.358 22.4267 100.198 22.56C99.8248 22.8533 99.0848 23 97.9781 23C95.6181 23 94.4115 22.72 94.3581 22.16L94.2181 20.86H92.2981L92.1981 21.98ZM93.7981 17.06L93.4981 13.46H93.0581L92.7181 17.06H93.7981ZM111.633 22.16C111.233 22.4533 110.673 22.7 109.953 22.9C109.246 23.0867 108.326 23.18 107.193 23.18C106.073 23.18 105.006 23.0867 103.993 22.9C102.98 22.7133 102.253 22.5067 101.813 22.28C101.373 22.0533 101.153 21.8333 101.153 21.62C101.153 20.8733 101.26 20.1 101.473 19.3C101.686 18.4867 101.94 18.08 102.233 18.08C102.286 18.08 102.84 18.26 103.893 18.62C104.946 18.98 105.74 19.16 106.273 19.16C106.806 19.16 107.153 19.1067 107.313 19C107.473 18.88 107.553 18.7133 107.553 18.5C107.553 18.2867 107.406 18.1 107.113 17.94C106.82 17.7667 106.453 17.62 106.013 17.5C105.573 17.3667 105.093 17.18 104.573 16.94C104.066 16.7 103.593 16.4333 103.153 16.14C102.713 15.8467 102.346 15.4333 102.053 14.9C101.76 14.3533 101.613 13.7333 101.613 13.04C101.613 10.08 103.38 8.6 106.913 8.6C108.233 8.6 109.373 8.68667 110.333 8.86C111.293 9.02 111.966 9.20667 112.353 9.42C112.753 9.62 112.953 9.82 112.953 10.02C112.953 10.7133 112.786 11.46 112.453 12.26C112.133 13.06 111.82 13.46 111.513 13.46C111.46 13.46 111.286 13.4 110.993 13.28C110.113 12.8933 109.38 12.7 108.793 12.7C108.22 12.7 107.826 12.7533 107.613 12.86C107.413 12.9667 107.313 13.1333 107.313 13.36C107.313 13.5733 107.46 13.7533 107.753 13.9C108.046 14.0333 108.406 14.16 108.833 14.28C109.273 14.3867 109.746 14.56 110.253 14.8C110.773 15.0267 111.253 15.3 111.693 15.62C112.133 15.9267 112.5 16.3667 112.793 16.94C113.086 17.5133 113.233 18.18 113.233 18.94C113.233 19.74 113.026 20.4667 112.613 21.12C112.36 21.52 112.033 21.8667 111.633 22.16ZM125.119 22.16C124.719 22.4533 124.159 22.7 123.439 22.9C122.732 23.0867 121.812 23.18 120.679 23.18C119.559 23.18 118.492 23.0867 117.479 22.9C116.466 22.7133 115.739 22.5067 115.299 22.28C114.859 22.0533 114.639 21.8333 114.639 21.62C114.639 20.8733 114.746 20.1 114.959 19.3C115.172 18.4867 115.426 18.08 115.719 18.08C115.772 18.08 116.326 18.26 117.379 18.62C118.432 18.98 119.226 19.16 119.759 19.16C120.292 19.16 120.639 19.1067 120.799 19C120.959 18.88 121.039 18.7133 121.039 18.5C121.039 18.2867 120.892 18.1 120.599 17.94C120.306 17.7667 119.939 17.62 119.499 17.5C119.059 17.3667 118.579 17.18 118.059 16.94C117.552 16.7 117.079 16.4333 116.639 16.14C116.199 15.8467 115.832 15.4333 115.539 14.9C115.246 14.3533 115.099 13.7333 115.099 13.04C115.099 10.08 116.866 8.6 120.399 8.6C121.719 8.6 122.859 8.68667 123.819 8.86C124.779 9.02 125.452 9.20667 125.839 9.42C126.239 9.62 126.439 9.82 126.439 10.02C126.439 10.7133 126.272 11.46 125.939 12.26C125.619 13.06 125.306 13.46 124.999 13.46C124.946 13.46 124.772 13.4 124.479 13.28C123.599 12.8933 122.866 12.7 122.279 12.7C121.706 12.7 121.312 12.7533 121.099 12.86C120.899 12.9667 120.799 13.1333 120.799 13.36C120.799 13.5733 120.946 13.7533 121.239 13.9C121.532 14.0333 121.892 14.16 122.319 14.28C122.759 14.3867 123.232 14.56 123.739 14.8C124.259 15.0267 124.739 15.3 125.179 15.62C125.619 15.9267 125.986 16.3667 126.279 16.94C126.572 17.5133 126.719 18.18 126.719 18.94C126.719 19.74 126.512 20.4667 126.099 21.12C125.846 21.52 125.519 21.8667 125.119 22.16ZM133.554 21.98C133.528 22.3667 133.321 22.6333 132.934 22.78C132.561 22.9267 131.881 23 130.894 23C129.908 23 129.081 22.9133 128.414 22.74C127.761 22.5533 127.434 22.32 127.434 22.04C127.434 21.72 128.028 19.68 129.214 15.92C130.401 12.1467 131.081 9.97333 131.254 9.4C131.321 9.22667 131.854 9.08667 132.854 8.98C133.868 8.86 134.948 8.8 136.094 8.8C137.254 8.8 137.894 9 138.014 9.4C140.534 17.7733 141.794 22.0267 141.794 22.16C141.794 22.2933 141.714 22.4267 141.554 22.56C141.181 22.8533 140.441 23 139.334 23C136.974 23 135.768 22.72 135.714 22.16L135.574 20.86H133.654L133.554 21.98ZM135.154 17.06L134.854 13.46H134.414L134.074 17.06H135.154Z" fill="#F59039"/>
<path d="M58.3406 17.6927C57.6648 21.5017 54.891 24.1994 52.1452 23.7182C49.3993 23.2371 47.7213 19.7592 48.3971 15.9502C49.0729 12.1412 52.381 8.09348 55.1268 8.57465C57.8726 9.05582 59.0164 13.8837 58.3406 17.6927Z" fill="#F59039"/>
<path d="M34.9563 17.6028C35.6321 21.4118 38.4059 24.1096 41.1517 23.6284C43.8975 23.1472 45.5756 19.6694 44.8998 15.8604C44.224 12.0513 40.9159 8.00364 38.1701 8.48481C35.4243 8.96597 34.2805 13.7938 34.9563 17.6028Z" fill="#F59039"/>
<path d="M26.1276 27.6231C28.0224 30.3124 31.1871 31.3593 33.196 29.9613C35.2049 28.5633 35.2975 25.2499 33.4027 22.5606C31.5079 19.8713 27.4376 17.9815 25.4287 19.3795C23.4198 20.7774 24.2329 24.9338 26.1276 27.6231Z" fill="#F59039"/>
<path d="M67.01 27.6231C65.1152 30.3124 61.9506 31.3593 59.9417 29.9613C57.9328 28.5633 57.8402 25.2499 59.735 22.5606C61.6298 19.8713 65.7 17.9815 67.709 19.3795C69.7179 20.7774 68.9048 24.9338 67.01 27.6231Z" fill="#F59039"/>
<path fill-rule="evenodd" clip-rule="evenodd" d="M50.9628 42.3788C55.0648 43.3019 59.6598 44.1003 59.6598 38.0468C59.6598 32.5881 51.8127 25.4673 46.6951 25.4673C41.5775 25.4673 33.7305 32.5881 33.7305 38.0468C33.7305 44.2305 38.5252 43.2644 42.6914 42.3192V33.7388H50.9628V42.3788Z" fill="#F59039"/>
<circle cx="49.6483" cy="38.8402" r="0.46374" fill="#F59039"/>
</svg>
