<svg width="22" height="23" fill="none" xmlns="http://www.w3.org/2000/svg"><path d="M12.486 7.5c-.867 0-4.59.093-6.986 4.029V7.5C5.5 5.018 3.65 3 1.375 3 .615 3 0 3.672 0 4.5S.616 6 1.375 6c.758 0 1.375.673 1.375 1.5v12c0 1.655 1.233 3 2.75 3h7.563c.38 0 .687-.336.687-.75V21c0-.828-.616-1.5-1.375-1.5H11l5.5-4.5v6.75c0 .414.308.75.688.75h1.375c.38 0 .687-.336.687-.75v-9.663a5.025 5.025 0 01-1.375.213c-2.656 0-4.878-2.065-5.389-4.8zM19.25 3H16.5l-2.75-3v6.3c0 2.485 1.847 4.5 4.125 4.5S22 8.785 22 6.3V0l-2.75 3zm-3.094 3.75c-.38 0-.687-.336-.687-.75s.307-.75.687-.75c.38 0 .688.336.688.75s-.308.75-.688.75zm3.438 0c-.38 0-.688-.336-.688-.75s.308-.75.688-.75c.38 0 .687.336.687.75s-.307.75-.687.75z" fill="#000"/></svg>