<svg width="22" height="23" viewBox="0 0 22 23" fill="none" xmlns="http://www.w3.org/2000/svg">
<path d="M12.4863 7.5C11.6192 7.5 7.89637 7.59281 5.5 11.5289V7.5C5.5 5.01844 3.64977 3 1.375 3C0.615742 3 0 3.67172 0 4.5C0 5.32828 0.615742 6 1.375 6C2.13297 6 2.75 6.67313 2.75 7.5V19.5C2.75 21.1547 3.9832 22.5 5.5 22.5H13.0625C13.4423 22.5 13.75 22.1644 13.75 21.75V21C13.75 20.1717 13.1343 19.5 12.375 19.5H11L16.5 15V21.75C16.5 22.1644 16.8077 22.5 17.1875 22.5H18.5625C18.9423 22.5 19.25 22.1644 19.25 21.75V12.0872C18.8079 12.2123 18.3524 12.3 17.875 12.3C15.2191 12.3 12.9972 10.2352 12.4863 7.5ZM19.25 3H16.5L13.75 0V6.3C13.75 8.78531 15.5968 10.8 17.875 10.8C20.1532 10.8 22 8.78531 22 6.3V0L19.25 3ZM16.1562 6.75C15.7764 6.75 15.4688 6.41437 15.4688 6C15.4688 5.58563 15.7764 5.25 16.1562 5.25C16.5361 5.25 16.8438 5.58563 16.8438 6C16.8438 6.41437 16.5361 6.75 16.1562 6.75ZM19.5938 6.75C19.2139 6.75 18.9062 6.41437 18.9062 6C18.9062 5.58563 19.2139 5.25 19.5938 5.25C19.9736 5.25 20.2812 5.58563 20.2812 6C20.2812 6.41437 19.9736 6.75 19.5938 6.75Z" fill="white"/>
</svg>
