<svg width="22" height="23" fill="none" xmlns="http://www.w3.org/2000/svg"><path d="M21.313 3h-2.75l-.308-.67a1.46 1.46 0 00-.507-.606 1.291 1.291 0 00-.723-.224h-2.304L13.55.22c-.434-.472-1.174-.138-1.174.53v7.024l5.5 2.143V8.25h1.375c1.519 0 2.75-1.343 2.75-3v-1.5c0-.414-.308-.75-.688-.75zM16.5 5.25c-.38 0-.688-.336-.688-.75s.308-.75.688-.75c.38 0 .688.336.688.75s-.308.75-.688.75zM4.125 9C3.367 9 2.75 8.327 2.75 7.5c0-.828-.616-1.5-1.375-1.5C.615 6 0 6.672 0 7.5c0 1.953 1.153 3.602 2.75 4.223V21.75c0 .414.308.75.688.75h2.75c.38 0 .687-.336.687-.75V16.5h6.875v5.25c0 .414.308.75.688.75h2.75c.38 0 .687-.336.687-.75V11.51L11.432 9H4.125z" fill="#000"/></svg>