<svg width="22" height="23" viewBox="0 0 22 23" fill="none" xmlns="http://www.w3.org/2000/svg">
<path d="M21.3125 2.99993H18.5625L18.2548 2.32915C18.1407 2.08 17.9651 1.87045 17.7479 1.72399C17.5307 1.57754 17.2804 1.49995 17.0251 1.49993H14.7211L13.5489 0.221183C13.1154 -0.251316 12.375 0.0833708 12.375 0.751339V7.77508L17.875 9.91774V8.24993H19.25C20.7689 8.24993 22 6.90696 22 5.24993V3.74993C22 3.33556 21.6923 2.99993 21.3125 2.99993ZM16.5 5.24993C16.1202 5.24993 15.8125 4.91431 15.8125 4.49993C15.8125 4.08556 16.1202 3.74993 16.5 3.74993C16.8798 3.74993 17.1875 4.08556 17.1875 4.49993C17.1875 4.91431 16.8798 5.24993 16.5 5.24993ZM4.125 8.99993C3.36703 8.99993 2.75 8.3268 2.75 7.49993C2.75 6.67165 2.13426 5.99993 1.375 5.99993C0.615742 5.99993 0 6.67165 0 7.49993C0 9.45274 1.15285 11.1023 2.75 11.7234V21.7499C2.75 22.1643 3.05766 22.4999 3.4375 22.4999H6.1875C6.56734 22.4999 6.875 22.1643 6.875 21.7499V16.4999H13.75V21.7499C13.75 22.1643 14.0577 22.4999 14.4375 22.4999H17.1875C17.5673 22.4999 17.875 22.1643 17.875 21.7499V11.5101L11.4318 8.99993H4.125Z" fill="white"/>
</svg>
