<svg width="14" height="21" viewBox="0 0 14 21" fill="none" xmlns="http://www.w3.org/2000/svg">
<path d="M14 6.75C14 3.02344 10.8646 0 7 0C3.13542 0 0 3.02344 0 6.75C0 9.96094 2.32847 12.6516 5.44444 13.3312V15.75H3.69444C3.37361 15.75 3.11111 16.0031 3.11111 16.3125V18.1875C3.11111 18.4969 3.37361 18.75 3.69444 18.75H5.44444V20.4375C5.44444 20.7469 5.70694 21 6.02778 21H7.97222C8.29306 21 8.55556 20.7469 8.55556 20.4375V18.75H10.3056C10.6264 18.75 10.8889 18.4969 10.8889 18.1875V16.3125C10.8889 16.0031 10.6264 15.75 10.3056 15.75H8.55556V13.3312C11.6715 12.6516 14 9.96094 14 6.75ZM3.11111 6.75C3.11111 4.68281 4.85625 3 7 3C9.14375 3 10.8889 4.68281 10.8889 6.75C10.8889 8.81719 9.14375 10.5 7 10.5C4.85625 10.5 3.11111 8.81719 3.11111 6.75Z" fill="white"/>
</svg>
