<svg width="18" height="18" viewBox="0 0 18 18" fill="none" xmlns="http://www.w3.org/2000/svg">
<path d="M17.4375 0H13.7344C13.2328 0 12.9844 0.604688 13.3359 0.960938L14.1281 1.75313L10.3453 5.53594C9.30469 4.87969 8.07187 4.5 6.75 4.5C3.02344 4.5 0 7.52344 0 11.25C0 14.9766 3.02344 18 6.75 18C10.4766 18 13.5 14.9766 13.5 11.25C13.5 9.92813 13.1203 8.69531 12.4641 7.65469L16.2469 3.87188L17.0391 4.66406C17.3953 5.02031 18 4.76719 18 4.26562V0.5625C18 0.253125 17.7469 0 17.4375 0ZM6.75 15C4.68281 15 3 13.3172 3 11.25C3 9.18281 4.68281 7.5 6.75 7.5C8.81719 7.5 10.5 9.18281 10.5 11.25C10.5 13.3172 8.81719 15 6.75 15Z" fill="white"/>
</svg>
